<svg xmlns="http://www.w3.org/2000/svg" width="90" height="90" viewBox="0 0 90 90">
  <defs>
    <style>
      .cls-1 {
        fill: #a88865;
      }

      .cls-2 {
        fill: #bebdb9;
      }

      .cls-3 {
        fill: #e8e7e6;
      }

      .cls-4 {
        fill: #fff;
      }

      .cls-5 {
        fill: #f2f2f2;
      }

      .cls-6 {
        fill: #6c9d41;
      }

      .cls-7 {
        fill: #a7c56a;
      }

      .cls-8 {
        fill: #cb3532;
      }
    </style>
  </defs>
  <g id="Layer_1" data-name="Layer 1">
    <g>
      <rect class="cls-1" y="14.74" width="90" height="70.25" rx="4.82"/>
      <g>
        <path class="cls-2" d="M49.82,12.61c-2.65,0-7,0-9.64,0l-31.11.15a4.86,4.86,0,0,0-4.82,4.85V75.92a4.8,4.8,0,0,0,4.82,4.8l31.11-.15c2.65,0,7,0,9.64,0l31.11.15a4.8,4.8,0,0,0,4.82-4.8V17.61a4.86,4.86,0,0,0-4.82-4.85Z"/>
        <path class="cls-3" d="M49.82,9.18H40.18L9.07,9.34a4.86,4.86,0,0,0-4.82,4.84V71.83a4.81,4.81,0,0,0,4.82,4.8l31.11-.15c2.65,0,7,0,9.64,0l31.11.15a4.81,4.81,0,0,0,4.82-4.8V14.18a4.86,4.86,0,0,0-4.82-4.84Z"/>
        <path class="cls-3" d="M45,76.45l35.93.18a4.81,4.81,0,0,0,4.82-4.8V14.18a4.86,4.86,0,0,0-4.82-4.84L45,9.16"/>
        <path class="cls-4" d="M9.42,67.37a5.59,5.59,0,0,0,4.78,5.4L45,76.45V9.16L14.09,3.32A3.57,3.57,0,0,0,9.42,7Z"/>
        <path class="cls-5" d="M80.58,67.37a5.59,5.59,0,0,1-4.78,5.4L45,76.45V9.16L75.91,3.32A3.57,3.57,0,0,1,80.58,7Z"/>
      </g>
      <g>
        <polygon class="cls-6" points="39.27 39 15.71 35.14 15.71 11.57 39.27 15.44 39.27 39"/>
        <g>
          <polygon class="cls-7" points="21.6 18.43 15.71 17.46 15.71 11.57 21.6 12.54 21.6 18.43"/>
          <polygon class="cls-7" points="27.49 25.29 21.6 24.32 21.6 18.43 27.49 19.39 27.49 25.29"/>
          <polygon class="cls-7" points="33.38 20.36 27.49 19.39 27.49 13.5 33.38 14.47 33.38 20.36"/>
          <polygon class="cls-7" points="39.27 27.22 33.38 26.25 33.38 20.36 39.27 21.33 39.27 27.22"/>
          <polygon class="cls-7" points="21.6 30.21 15.71 29.25 15.71 23.36 21.6 24.32 21.6 30.21"/>
          <polygon class="cls-7" points="27.49 37.07 21.6 36.1 21.6 30.21 27.49 31.18 27.49 37.07"/>
          <polygon class="cls-7" points="33.38 32.14 27.49 31.18 27.49 25.29 33.38 26.25 33.38 32.14"/>
          <polygon class="cls-7" points="39.27 39 33.38 38.03 33.38 32.14 39.27 33.11 39.27 39"/>
        </g>
      </g>
      <g>
        <path class="cls-2" d="M39.27,49.47a.87.87,0,0,1-1,.89L16.81,46.91a1.28,1.28,0,0,1-1-1.23V43.57a.87.87,0,0,1,1-.89l21.42,3.45a1.29,1.29,0,0,1,1,1.23Z"/>
        <path class="cls-2" d="M39.27,59a.87.87,0,0,1-1,.89L16.81,56.41a1.3,1.3,0,0,1-1-1.23V53.06a.87.87,0,0,1,1-.89l21.42,3.45a1.29,1.29,0,0,1,1,1.23Z"/>
        <path class="cls-2" d="M39.27,68.46a.87.87,0,0,1-1,.89L16.81,65.9a1.29,1.29,0,0,1-1-1.23V62.55a.87.87,0,0,1,1-.89l21.42,3.46a1.28,1.28,0,0,1,1,1.22Z"/>
      </g>
      <g>
        <path class="cls-2" d="M50.73,59a.87.87,0,0,0,1,.89l21.42-3.45a1.3,1.3,0,0,0,1-1.23V53.06a.87.87,0,0,0-1-.89L51.77,55.62a1.29,1.29,0,0,0-1,1.23Z"/>
        <path class="cls-2" d="M50.73,68.46a.87.87,0,0,0,1,.89L73.19,65.9a1.29,1.29,0,0,0,1-1.23V62.55a.87.87,0,0,0-1-.89L51.77,65.12a1.28,1.28,0,0,0-1,1.22Z"/>
      </g>
      <path class="cls-2" d="M50.73,49.48a.87.87,0,0,0,1,.89l21.42-3.46a1.28,1.28,0,0,0,1-1.22V43.57a.87.87,0,0,0-1-.89L51.77,46.13a1.28,1.28,0,0,0-1,1.23Z"/>
      <g>
        <path class="cls-2" d="M50.73,29.48a.87.87,0,0,0,1,.89l21.42-3.45a1.29,1.29,0,0,0,1-1.23V23.57a.87.87,0,0,0-1-.89L51.77,26.13a1.29,1.29,0,0,0-1,1.23Z"/>
        <path class="cls-2" d="M50.73,39a.87.87,0,0,0,1,.89l21.42-3.45a1.28,1.28,0,0,0,1-1.23V33.07a.87.87,0,0,0-1-.89L51.77,35.63a1.28,1.28,0,0,0-1,1.22Z"/>
      </g>
      <path class="cls-2" d="M50.73,20a.87.87,0,0,0,1,.89l21.42-3.45a1.3,1.3,0,0,0,1-1.23V14.08a.87.87,0,0,0-1-.89L51.77,16.64a1.28,1.28,0,0,0-1,1.23Z"/>
      <path class="cls-8" d="M51.63,50.17,58.25,54l0-48.91L45,8.43l0,48.35Z"/>
    </g>
  </g>
</svg>
